<mxfile host="app.diagrams.net" modified="2022-06-01T17:29:29.579Z" agent="5.0 (Windows NT 10.0; Win64; x64) AppleWebKit/537.36 (KHTML, like Gecko) Chrome/102.0.5005.63 Safari/537.36 Edg/102.0.1245.30" etag="5zbtd6o_6hl5imzyCjGV" version="18.2.0" type="github">
  <diagram id="C5RBs43oDa-KdzZeNtuy" name="Page-1">
    <mxGraphModel dx="1374" dy="794" grid="0" gridSize="10" guides="1" tooltips="1" connect="1" arrows="1" fold="1" page="1" pageScale="1" pageWidth="827" pageHeight="1169" math="0" shadow="0">
      <root>
        <mxCell id="WIyWlLk6GJQsqaUBKTNV-0" />
        <mxCell id="WIyWlLk6GJQsqaUBKTNV-1" parent="WIyWlLk6GJQsqaUBKTNV-0" />
        <mxCell id="58cgu_W1_r-Gbu00j3C--20" value="" style="rounded=0;whiteSpace=wrap;html=1;" vertex="1" parent="WIyWlLk6GJQsqaUBKTNV-1">
          <mxGeometry x="269" y="382" width="300" height="60" as="geometry" />
        </mxCell>
        <mxCell id="58cgu_W1_r-Gbu00j3C--18" value="" style="rounded=0;whiteSpace=wrap;html=1;" vertex="1" parent="WIyWlLk6GJQsqaUBKTNV-1">
          <mxGeometry x="269" y="318" width="300" height="56" as="geometry" />
        </mxCell>
        <mxCell id="58cgu_W1_r-Gbu00j3C--13" value="" style="rounded=0;whiteSpace=wrap;html=1;" vertex="1" parent="WIyWlLk6GJQsqaUBKTNV-1">
          <mxGeometry x="269" y="246" width="300" height="68" as="geometry" />
        </mxCell>
        <mxCell id="58cgu_W1_r-Gbu00j3C--12" value="" style="rounded=0;whiteSpace=wrap;html=1;" vertex="1" parent="WIyWlLk6GJQsqaUBKTNV-1">
          <mxGeometry x="269" y="104" width="299" height="129" as="geometry" />
        </mxCell>
        <mxCell id="58cgu_W1_r-Gbu00j3C--6" style="edgeStyle=orthogonalEdgeStyle;rounded=0;orthogonalLoop=1;jettySize=auto;html=1;" edge="1" parent="WIyWlLk6GJQsqaUBKTNV-1" source="58cgu_W1_r-Gbu00j3C--0" target="58cgu_W1_r-Gbu00j3C--1">
          <mxGeometry relative="1" as="geometry" />
        </mxCell>
        <mxCell id="58cgu_W1_r-Gbu00j3C--0" value="회원가입" style="rounded=1;whiteSpace=wrap;html=1;fontSize=12;glass=0;strokeWidth=1;shadow=0;" vertex="1" parent="WIyWlLk6GJQsqaUBKTNV-1">
          <mxGeometry x="276" y="116" width="120" height="40" as="geometry" />
        </mxCell>
        <mxCell id="58cgu_W1_r-Gbu00j3C--7" style="edgeStyle=orthogonalEdgeStyle;rounded=0;orthogonalLoop=1;jettySize=auto;html=1;exitX=0.5;exitY=1;exitDx=0;exitDy=0;entryX=0.5;entryY=0;entryDx=0;entryDy=0;" edge="1" parent="WIyWlLk6GJQsqaUBKTNV-1" source="58cgu_W1_r-Gbu00j3C--1" target="58cgu_W1_r-Gbu00j3C--2">
          <mxGeometry relative="1" as="geometry" />
        </mxCell>
        <mxCell id="58cgu_W1_r-Gbu00j3C--1" value="로그인" style="rounded=1;whiteSpace=wrap;html=1;fontSize=12;glass=0;strokeWidth=1;shadow=0;" vertex="1" parent="WIyWlLk6GJQsqaUBKTNV-1">
          <mxGeometry x="276" y="187" width="120" height="40" as="geometry" />
        </mxCell>
        <mxCell id="58cgu_W1_r-Gbu00j3C--8" style="edgeStyle=orthogonalEdgeStyle;rounded=0;orthogonalLoop=1;jettySize=auto;html=1;exitX=0.5;exitY=1;exitDx=0;exitDy=0;entryX=0.5;entryY=0;entryDx=0;entryDy=0;" edge="1" parent="WIyWlLk6GJQsqaUBKTNV-1" source="58cgu_W1_r-Gbu00j3C--2" target="58cgu_W1_r-Gbu00j3C--3">
          <mxGeometry relative="1" as="geometry" />
        </mxCell>
        <mxCell id="58cgu_W1_r-Gbu00j3C--2" value="친구 추가" style="rounded=1;whiteSpace=wrap;html=1;fontSize=12;glass=0;strokeWidth=1;shadow=0;" vertex="1" parent="WIyWlLk6GJQsqaUBKTNV-1">
          <mxGeometry x="274" y="258" width="120" height="40" as="geometry" />
        </mxCell>
        <mxCell id="58cgu_W1_r-Gbu00j3C--9" style="edgeStyle=orthogonalEdgeStyle;rounded=0;orthogonalLoop=1;jettySize=auto;html=1;exitX=0.5;exitY=1;exitDx=0;exitDy=0;" edge="1" parent="WIyWlLk6GJQsqaUBKTNV-1" source="58cgu_W1_r-Gbu00j3C--3" target="58cgu_W1_r-Gbu00j3C--4">
          <mxGeometry relative="1" as="geometry" />
        </mxCell>
        <mxCell id="58cgu_W1_r-Gbu00j3C--3" value="일정 공유방 생성" style="rounded=1;whiteSpace=wrap;html=1;fontSize=12;glass=0;strokeWidth=1;shadow=0;" vertex="1" parent="WIyWlLk6GJQsqaUBKTNV-1">
          <mxGeometry x="274" y="325" width="120" height="40" as="geometry" />
        </mxCell>
        <mxCell id="58cgu_W1_r-Gbu00j3C--4" value="일정 추가" style="rounded=1;whiteSpace=wrap;html=1;fontSize=12;glass=0;strokeWidth=1;shadow=0;" vertex="1" parent="WIyWlLk6GJQsqaUBKTNV-1">
          <mxGeometry x="274" y="392" width="120" height="40" as="geometry" />
        </mxCell>
        <mxCell id="58cgu_W1_r-Gbu00j3C--16" value="사용자 테이블에 저장" style="text;html=1;strokeColor=none;fillColor=none;align=center;verticalAlign=middle;whiteSpace=wrap;rounded=0;" vertex="1" parent="WIyWlLk6GJQsqaUBKTNV-1">
          <mxGeometry x="414" y="150" width="132" height="30" as="geometry" />
        </mxCell>
        <mxCell id="58cgu_W1_r-Gbu00j3C--17" value="친구 테이블에 저장" style="text;html=1;strokeColor=none;fillColor=none;align=center;verticalAlign=middle;whiteSpace=wrap;rounded=0;" vertex="1" parent="WIyWlLk6GJQsqaUBKTNV-1">
          <mxGeometry x="408" y="265" width="130" height="30" as="geometry" />
        </mxCell>
        <mxCell id="58cgu_W1_r-Gbu00j3C--19" value="방 테이블에 저장" style="text;html=1;strokeColor=none;fillColor=none;align=center;verticalAlign=middle;whiteSpace=wrap;rounded=0;" vertex="1" parent="WIyWlLk6GJQsqaUBKTNV-1">
          <mxGeometry x="414" y="330" width="104" height="30" as="geometry" />
        </mxCell>
        <mxCell id="58cgu_W1_r-Gbu00j3C--21" value="일정 테이블에 저장" style="text;html=1;strokeColor=none;fillColor=none;align=center;verticalAlign=middle;whiteSpace=wrap;rounded=0;" vertex="1" parent="WIyWlLk6GJQsqaUBKTNV-1">
          <mxGeometry x="403" y="397" width="131" height="30" as="geometry" />
        </mxCell>
      </root>
    </mxGraphModel>
  </diagram>
</mxfile>
